<?xml version="1.0" encoding="UTF-8" standalone="no"?>
<!-- Created with Inkscape (http://www.inkscape.org/) -->

<svg
   xmlns:ns0="http://www.iki.fi/pav/software/textext/"
   xmlns:dc="http://purl.org/dc/elements/1.1/"
   xmlns:cc="http://creativecommons.org/ns#"
   xmlns:rdf="http://www.w3.org/1999/02/22-rdf-syntax-ns#"
   xmlns:svg="http://www.w3.org/2000/svg"
   xmlns="http://www.w3.org/2000/svg"
   xmlns:sodipodi="http://sodipodi.sourceforge.net/DTD/sodipodi-0.dtd"
   xmlns:inkscape="http://www.inkscape.org/namespaces/inkscape"
   width="210mm"
   height="297mm"
   viewBox="0 0 210 297"
   version="1.1"
   id="svg8"
   inkscape:version="0.92.4 (5da689c313, 2019-01-14)"
   sodipodi:docname="kmh.svg">
  <defs
     id="defs2">
    <inkscape:path-effect
       effect="bspline"
       id="path-effect1377"
       is_visible="true"
       weight="33.333333"
       steps="2"
       helper_size="0"
       apply_no_weight="true"
       apply_with_weight="true"
       only_selected="false" />
    <inkscape:path-effect
       effect="bspline"
       id="path-effect1373"
       is_visible="true"
       weight="33.333333"
       steps="2"
       helper_size="0"
       apply_no_weight="true"
       apply_with_weight="true"
       only_selected="false" />
    <marker
       inkscape:stockid="Arrow2Lstart"
       orient="auto"
       refY="0.0"
       refX="0.0"
       id="Arrow2Lstart"
       style="overflow:visible"
       inkscape:isstock="true">
      <path
         id="path1047"
         style="fill-rule:evenodd;stroke-width:0.625;stroke-linejoin:round;stroke:#000000;stroke-opacity:1;fill:#000000;fill-opacity:1"
         d="M 8.7185878,4.0337352 L -2.2072895,0.016013256 L 8.7185884,-4.0017078 C 6.9730900,-1.6296469 6.9831476,1.6157441 8.7185878,4.0337352 z "
         transform="scale(1.1) translate(1,0)" />
    </marker>
    <inkscape:path-effect
       effect="bspline"
       id="path-effect144"
       is_visible="true"
       weight="33.333333"
       steps="2"
       helper_size="0"
       apply_no_weight="true"
       apply_with_weight="true"
       only_selected="false" />
    <inkscape:path-effect
       effect="bspline"
       id="path-effect1579"
       is_visible="true"
       weight="33.333333"
       steps="2"
       helper_size="0"
       apply_no_weight="true"
       apply_with_weight="true"
       only_selected="false" />
    <marker
       inkscape:isstock="true"
       style="overflow:visible"
       id="marker1440"
       refX="0.0"
       refY="0.0"
       orient="auto"
       inkscape:stockid="Arrow1Lstart">
      <path
         transform="scale(0.8) translate(12.5,0)"
         style="fill-rule:evenodd;stroke:#000000;stroke-width:1pt;stroke-opacity:1;fill:#000000;fill-opacity:1"
         d="M 0.0,0.0 L 5.0,-5.0 L -12.5,0.0 L 5.0,5.0 L 0.0,0.0 z "
         id="path1438" />
    </marker>
    <inkscape:path-effect
       effect="bspline"
       id="path-effect1430"
       is_visible="true"
       weight="33.333333"
       steps="2"
       helper_size="0"
       apply_no_weight="true"
       apply_with_weight="true"
       only_selected="false" />
    <marker
       inkscape:stockid="Arrow1Mstart"
       orient="auto"
       refY="0.0"
       refX="0.0"
       id="Arrow1Mstart"
       style="overflow:visible"
       inkscape:isstock="true">
      <path
         id="path1082"
         d="M 0.0,0.0 L 5.0,-5.0 L -12.5,0.0 L 5.0,5.0 L 0.0,0.0 z "
         style="fill-rule:evenodd;stroke:#000000;stroke-width:1pt;stroke-opacity:1;fill:#000000;fill-opacity:1"
         transform="scale(0.4) translate(10,0)" />
    </marker>
    <inkscape:path-effect
       effect="bspline"
       id="path-effect251"
       is_visible="true"
       weight="33.333333"
       steps="2"
       helper_size="0"
       apply_no_weight="true"
       apply_with_weight="true"
       only_selected="false" />
    <inkscape:path-effect
       effect="bspline"
       id="path-effect247"
       is_visible="true"
       weight="33.333333"
       steps="2"
       helper_size="0"
       apply_no_weight="true"
       apply_with_weight="true"
       only_selected="false" />
    <inkscape:path-effect
       effect="bspline"
       id="path-effect5829"
       is_visible="true"
       weight="33.333333"
       steps="2"
       helper_size="0"
       apply_no_weight="true"
       apply_with_weight="true"
       only_selected="false" />
    <inkscape:path-effect
       effect="bspline"
       id="path-effect5663"
       is_visible="true"
       weight="33.333333"
       steps="2"
       helper_size="0"
       apply_no_weight="true"
       apply_with_weight="true"
       only_selected="false" />
    <marker
       inkscape:stockid="Arrow1Lstart"
       orient="auto"
       refY="0.0"
       refX="0.0"
       id="marker5617"
       style="overflow:visible"
       inkscape:isstock="true">
      <path
         id="path5615"
         d="M 0.0,0.0 L 5.0,-5.0 L -12.5,0.0 L 5.0,5.0 L 0.0,0.0 z "
         style="fill-rule:evenodd;stroke:#00be00;stroke-width:1pt;stroke-opacity:1;fill:#00be00;fill-opacity:1"
         transform="scale(0.8) translate(12.5,0)" />
    </marker>
    <inkscape:path-effect
       effect="bspline"
       id="path-effect5319"
       is_visible="true"
       weight="33.333333"
       steps="2"
       helper_size="0"
       apply_no_weight="true"
       apply_with_weight="true"
       only_selected="false" />
    <inkscape:path-effect
       effect="bspline"
       id="path-effect5315"
       is_visible="true"
       weight="33.333333"
       steps="2"
       helper_size="0"
       apply_no_weight="true"
       apply_with_weight="true"
       only_selected="false" />
    <inkscape:perspective
       sodipodi:type="inkscape:persp3d"
       inkscape:vp_x="0 : 148.5 : 1"
       inkscape:vp_y="0 : 1000 : 0"
       inkscape:vp_z="210 : 148.5 : 1"
       inkscape:persp3d-origin="105 : 99 : 1"
       id="perspective3719" />
    <marker
       inkscape:stockid="Arrow2Lstart"
       orient="auto"
       refY="0"
       refX="0"
       id="Arrow2Lstart-4"
       style="overflow:visible"
       inkscape:isstock="true">
      <path
         inkscape:connector-curvature="0"
         id="path1047-5"
         style="fill:#000000;fill-opacity:1;fill-rule:evenodd;stroke:#000000;stroke-width:0.625;stroke-linejoin:round;stroke-opacity:1"
         d="M 8.7185878,4.0337352 -2.2072895,0.01601326 8.7185884,-4.0017078 c -1.7454984,2.3720609 -1.7354408,5.6174519 -6e-7,8.035443 z"
         transform="matrix(1.1,0,0,1.1,1.1,0)" />
    </marker>
    <marker
       inkscape:isstock="true"
       style="overflow:visible"
       id="marker1440-5"
       refX="0"
       refY="0"
       orient="auto"
       inkscape:stockid="Arrow1Lstart">
      <path
         inkscape:connector-curvature="0"
         transform="matrix(0.8,0,0,0.8,10,0)"
         style="fill:#000000;fill-opacity:1;fill-rule:evenodd;stroke:#000000;stroke-width:1.00000003pt;stroke-opacity:1"
         d="M 0,0 5,-5 -12.5,0 5,5 Z"
         id="path1438-0" />
    </marker>
    <inkscape:path-effect
       effect="bspline"
       id="path-effect1377-5"
       is_visible="true"
       weight="33.333333"
       steps="2"
       helper_size="0"
       apply_no_weight="true"
       apply_with_weight="true"
       only_selected="false" />
    <marker
       inkscape:stockid="Arrow2Lstart"
       orient="auto"
       refY="0"
       refX="0"
       id="Arrow2Lstart-0"
       style="overflow:visible"
       inkscape:isstock="true">
      <path
         inkscape:connector-curvature="0"
         id="path1047-0"
         style="fill:#000000;fill-opacity:1;fill-rule:evenodd;stroke:#000000;stroke-width:0.625;stroke-linejoin:round;stroke-opacity:1"
         d="M 8.7185878,4.0337352 -2.2072895,0.01601326 8.7185884,-4.0017078 c -1.7454984,2.3720609 -1.7354408,5.6174519 -6e-7,8.035443 z"
         transform="matrix(1.1,0,0,1.1,1.1,0)" />
    </marker>
    <marker
       inkscape:isstock="true"
       style="overflow:visible"
       id="marker1440-59"
       refX="0"
       refY="0"
       orient="auto"
       inkscape:stockid="Arrow1Lstart">
      <path
         inkscape:connector-curvature="0"
         transform="matrix(0.8,0,0,0.8,10,0)"
         style="fill:#000000;fill-opacity:1;fill-rule:evenodd;stroke:#000000;stroke-width:1.00000003pt;stroke-opacity:1"
         d="M 0,0 5,-5 -12.5,0 5,5 Z"
         id="path1438-08" />
    </marker>
    <inkscape:path-effect
       effect="bspline"
       id="path-effect1377-7"
       is_visible="true"
       weight="33.333333"
       steps="2"
       helper_size="0"
       apply_no_weight="true"
       apply_with_weight="true"
       only_selected="false" />
    <marker
       inkscape:stockid="Arrow2Lstart"
       orient="auto"
       refY="0"
       refX="0"
       id="Arrow2Lstart-7"
       style="overflow:visible"
       inkscape:isstock="true">
      <path
         inkscape:connector-curvature="0"
         id="path1047-9"
         style="fill:#000000;fill-opacity:1;fill-rule:evenodd;stroke:#000000;stroke-width:0.625;stroke-linejoin:round;stroke-opacity:1"
         d="M 8.7185878,4.0337352 -2.2072895,0.01601326 8.7185884,-4.0017078 c -1.7454984,2.3720609 -1.7354408,5.6174519 -6e-7,8.035443 z"
         transform="matrix(1.1,0,0,1.1,1.1,0)" />
    </marker>
    <marker
       inkscape:isstock="true"
       style="overflow:visible"
       id="marker1440-6"
       refX="0"
       refY="0"
       orient="auto"
       inkscape:stockid="Arrow1Lstart">
      <path
         inkscape:connector-curvature="0"
         transform="matrix(0.8,0,0,0.8,10,0)"
         style="fill:#000000;fill-opacity:1;fill-rule:evenodd;stroke:#000000;stroke-width:1.00000003pt;stroke-opacity:1"
         d="M 0,0 5,-5 -12.5,0 5,5 Z"
         id="path1438-8" />
    </marker>
    <inkscape:path-effect
       effect="bspline"
       id="path-effect1377-9"
       is_visible="true"
       weight="33.333333"
       steps="2"
       helper_size="0"
       apply_no_weight="true"
       apply_with_weight="true"
       only_selected="false" />
    <marker
       inkscape:stockid="Arrow2Lstart"
       orient="auto"
       refY="0"
       refX="0"
       id="Arrow2Lstart-7-9"
       style="overflow:visible"
       inkscape:isstock="true">
      <path
         inkscape:connector-curvature="0"
         id="path1047-9-9"
         style="fill:#000000;fill-opacity:1;fill-rule:evenodd;stroke:#000000;stroke-width:0.625;stroke-linejoin:round;stroke-opacity:1"
         d="M 8.7185878,4.0337352 -2.2072895,0.01601326 8.7185884,-4.0017078 c -1.7454984,2.3720609 -1.7354408,5.6174519 -6e-7,8.035443 z"
         transform="matrix(1.1,0,0,1.1,1.1,0)" />
    </marker>
    <marker
       inkscape:isstock="true"
       style="overflow:visible"
       id="marker1440-6-1"
       refX="0"
       refY="0"
       orient="auto"
       inkscape:stockid="Arrow1Lstart">
      <path
         inkscape:connector-curvature="0"
         transform="matrix(0.8,0,0,0.8,10,0)"
         style="fill:#000000;fill-opacity:1;fill-rule:evenodd;stroke:#000000;stroke-width:1.00000003pt;stroke-opacity:1"
         d="M 0,0 5,-5 -12.5,0 5,5 Z"
         id="path1438-8-9" />
    </marker>
    <inkscape:path-effect
       effect="bspline"
       id="path-effect1377-9-3"
       is_visible="true"
       weight="33.333333"
       steps="2"
       helper_size="0"
       apply_no_weight="true"
       apply_with_weight="true"
       only_selected="false" />
    <marker
       inkscape:stockid="Arrow2Lstart"
       orient="auto"
       refY="0"
       refX="0"
       id="Arrow2Lstart-7-4"
       style="overflow:visible"
       inkscape:isstock="true">
      <path
         inkscape:connector-curvature="0"
         id="path1047-9-4"
         style="fill:#000000;fill-opacity:1;fill-rule:evenodd;stroke:#000000;stroke-width:0.625;stroke-linejoin:round;stroke-opacity:1"
         d="M 8.7185878,4.0337352 -2.2072895,0.01601326 8.7185884,-4.0017078 c -1.7454984,2.3720609 -1.7354408,5.6174519 -6e-7,8.035443 z"
         transform="matrix(1.1,0,0,1.1,1.1,0)" />
    </marker>
    <marker
       inkscape:isstock="true"
       style="overflow:visible"
       id="marker1440-6-5"
       refX="0"
       refY="0"
       orient="auto"
       inkscape:stockid="Arrow1Lstart">
      <path
         inkscape:connector-curvature="0"
         transform="matrix(0.8,0,0,0.8,10,0)"
         style="fill:#000000;fill-opacity:1;fill-rule:evenodd;stroke:#000000;stroke-width:1.00000003pt;stroke-opacity:1"
         d="M 0,0 5,-5 -12.5,0 5,5 Z"
         id="path1438-8-7" />
    </marker>
    <inkscape:path-effect
       effect="bspline"
       id="path-effect1377-9-4"
       is_visible="true"
       weight="33.333333"
       steps="2"
       helper_size="0"
       apply_no_weight="true"
       apply_with_weight="true"
       only_selected="false" />
  </defs>
  <sodipodi:namedview
     id="base"
     pagecolor="#ffffff"
     bordercolor="#666666"
     borderopacity="1.0"
     inkscape:pageopacity="0.0"
     inkscape:pageshadow="2"
     inkscape:zoom="0.36"
     inkscape:cx="-1276.2859"
     inkscape:cy="930.56553"
     inkscape:document-units="mm"
     inkscape:current-layer="layer1"
     showgrid="false"
     inkscape:snap-text-baseline="false"
     inkscape:window-width="2560"
     inkscape:window-height="1417"
     inkscape:window-x="-8"
     inkscape:window-y="-8"
     inkscape:window-maximized="1" />
  <metadata
     id="metadata5">
    <rdf:RDF>
      <cc:Work
         rdf:about="">
        <dc:format>image/svg+xml</dc:format>
        <dc:type
           rdf:resource="http://purl.org/dc/dcmitype/StillImage" />
        <dc:title />
      </cc:Work>
    </rdf:RDF>
  </metadata>
  <g
     inkscape:label="Capa 1"
     inkscape:groupmode="layer"
     id="layer1">
    <path
       sodipodi:type="star"
       id="path4619"
       sodipodi:sides="6"
       sodipodi:cx="-402.07452"
       sodipodi:cy="-80.411619"
       sodipodi:r1="108.30188"
       sodipodi:r2="109.40055"
       sodipodi:arg1="0.51048832"
       sodipodi:arg2="0.49501819"
       inkscape:flatsided="false"
       inkscape:rounded="0"
       inkscape:randomized="0"
       d="m -307.58048,-27.494958 1.77407,-0.946188 -94.84827,56.322097 1.70646,1.0633 -96.2005,-53.979963 -0.0676,2.009487 -1.35224,-110.302055 -1.77407,0.94618 94.84827,-56.32209 -1.70646,-1.0633 96.2005,53.97996 0.0676,-2.00949 z"
       inkscape:transform-center-x="-6.3904761e-06"
       inkscape:transform-center-y="2.0677915e-06"
       style="fill:none;fill-opacity:1;stroke:#000000;stroke-width:1.36500001;stroke-miterlimit:4;stroke-dasharray:none;stroke-opacity:1"
       inkscape:export-filename="C:\Users\Usuario\g1729.png"
       inkscape:export-xdpi="96"
       inkscape:export-ydpi="96" />
    <ellipse
       style="fill:#ff0000;fill-opacity:1;stroke:#000000;stroke-width:1.36500001;stroke-miterlimit:4;stroke-dasharray:none;stroke-opacity:1"
       id="path5203-6"
       cx="-496.66064"
       cy="-131.62498"
       rx="7.5595236"
       ry="7.1815476"
       inkscape:export-filename="C:\Users\Usuario\g1729.png"
       inkscape:export-xdpi="96"
       inkscape:export-ydpi="96" />
    <ellipse
       style="fill:#ff0000;fill-opacity:1;stroke:#000000;stroke-width:1.36500001;stroke-miterlimit:4;stroke-dasharray:none;stroke-opacity:1"
       id="path5203-9"
       cx="-309.18445"
       cy="-136.16071"
       rx="7.5595236"
       ry="7.1815476"
       inkscape:export-filename="C:\Users\Usuario\g1729.png"
       inkscape:export-xdpi="96"
       inkscape:export-ydpi="96" />
    <ellipse
       style="fill:#ff0000;fill-opacity:1;stroke:#000000;stroke-width:1.36500001;stroke-miterlimit:4;stroke-dasharray:none;stroke-opacity:1"
       id="path5203-3"
       cx="-401.41064"
       cy="27.880953"
       rx="7.5595236"
       ry="7.1815476"
       inkscape:export-filename="C:\Users\Usuario\g1729.png"
       inkscape:export-xdpi="96"
       inkscape:export-ydpi="96" />
    <ellipse
       style="fill:#0000ff;fill-opacity:1;stroke:#000000;stroke-width:1.36500001;stroke-miterlimit:4;stroke-dasharray:none;stroke-opacity:1"
       id="path5203-7"
       cx="-403.6785"
       cy="-188.32141"
       rx="7.5595236"
       ry="7.1815476"
       inkscape:export-filename="C:\Users\Usuario\g1729.png"
       inkscape:export-xdpi="96"
       inkscape:export-ydpi="96" />
    <ellipse
       style="fill:#0000ff;fill-opacity:1;stroke:#000000;stroke-width:1.36500001;stroke-miterlimit:4;stroke-dasharray:none;stroke-opacity:1"
       id="path5203-00"
       cx="-306.9166"
       cy="-26.547619"
       rx="7.5595236"
       ry="7.1815476"
       inkscape:export-filename="C:\Users\Usuario\g1729.png"
       inkscape:export-xdpi="96"
       inkscape:export-ydpi="96" />
    <ellipse
       style="fill:#0000ff;fill-opacity:1;stroke:#000000;stroke-width:1.36500001;stroke-miterlimit:4;stroke-dasharray:none;stroke-opacity:1"
       id="path5203-27"
       cx="-494.39279"
       cy="-23.523811"
       rx="7.5595236"
       ry="7.1815476"
       inkscape:export-filename="C:\Users\Usuario\g1729.png"
       inkscape:export-xdpi="96"
       inkscape:export-ydpi="96" />
    <path
       style="fill:none;stroke:#00be00;stroke-width:0.765;stroke-linecap:butt;stroke-linejoin:miter;stroke-opacity:1;stroke-miterlimit:4;stroke-dasharray:none;marker-mid:"
       d="m -495.21633,-23.026224 c 22.44937,-0.669838 44.89848,-1.339669 60.65853,7.144706 15.76005,8.4843751 24.83162,26.123481 33.90313,43.762471"
       id="path5317"
       inkscape:connector-curvature="0"
       inkscape:path-effect="#path-effect5319"
       inkscape:original-d="m -495.21633,-23.026224 c 22.44936,-0.670095 44.89847,-1.339925 67.34728,-2.00949 9.07161,17.6384099 18.14319,35.277512 27.21438,52.916667"
       inkscape:export-filename="C:\Users\Usuario\g1729.png"
       inkscape:export-xdpi="96"
       inkscape:export-ydpi="96" />
    <path
       style="fill:none;stroke:#b36089;stroke-width:0.865;stroke-linecap:butt;stroke-linejoin:miter;stroke-opacity:1;stroke-miterlimit:4;stroke-dasharray:none;marker-mid:"
       d="m -402.42876,28.82714 c 0.0874,-34.5855026 0.17473,-69.170738 -15.51507,-96.196411 -15.68981,-27.025673 -47.15737,-46.492399 -78.62473,-65.959009"
       id="path5661"
       inkscape:connector-curvature="0"
       inkscape:path-effect="#path-effect5663"
       inkscape:original-d="m -402.42876,28.82714 c 0.0876,-34.585502 0.175,-69.170737 0.2621,-103.75571 -31.46679,-19.466687 -62.93435,-38.93341 -94.4019,-58.39971"
       inkscape:export-filename="C:\Users\Usuario\g1729.png"
       inkscape:export-xdpi="96"
       inkscape:export-ydpi="96" />
    <g
       ns0:jacobian_sqrt="0.352778"
       inkscapeversion="0.92.4"
       ns0:alignment="middle center"
       ns0:scale="1.0"
       ns0:preamble="C:\\Users\\Usuario\\AppData\\Roaming\\inkscape\\extensions\\textext\\default_packages.tex"
       ns0:text="$t_1$"
       ns0:pdfconverter="pstoedit"
       ns0:texconverter="pdflatex"
       ns0:version="0.9.0"
       word-spacing="normal"
       letter-spacing="normal"
       font-size-adjust="none"
       font-stretch="normal"
       font-weight="normal"
       font-variant="normal"
       font-style="normal"
       stroke-miterlimit="10.433"
       xml:space="preserve"
       transform="matrix(1.9371091,0,0,-1.8235023,-723.79035,1177.4968)"
       id="content"
       style="font-style:normal;font-variant:normal;font-weight:normal;font-stretch:normal;letter-spacing:normal;word-spacing:normal;text-anchor:start;fill:none;fill-opacity:1;fill-rule:evenodd;stroke:#000000;stroke-linecap:butt;stroke-linejoin:miter;stroke-miterlimit:10.43299961;stroke-dasharray:none;stroke-dashoffset:0;stroke-opacity:1"
       inkscape:export-filename="C:\Users\Usuario\g1729.png"
       inkscape:export-xdpi="96"
       inkscape:export-ydpi="96">
<path
   id="path159"
   d="m 150.77,661.21 h 0.93 c 0.2,0 0.3,0 0.3,0.2 0,0.11 -0.1,0.11 -0.28,0.11 h -0.87 c 0.36,1.41 0.41,1.61 0.41,1.66 0,0.17 -0.13,0.27 -0.29,0.27 -0.03,0 -0.31,-0.01 -0.4,-0.35 l -0.39,-1.58 h -0.94 c -0.2,0 -0.3,0 -0.3,-0.19 0,-0.12 0.08,-0.12 0.28,-0.12 h 0.88 c -0.72,-2.82 -0.76,-2.99 -0.76,-3.17 0,-0.54 0.38,-0.91 0.92,-0.91 1.01,0 1.58,1.45 1.58,1.53 0,0.1 -0.08,0.1 -0.12,0.1 -0.09,0 -0.1,-0.04 -0.15,-0.14 -0.42,-1.04 -0.95,-1.28 -1.29,-1.28 -0.21,0 -0.31,0.13 -0.31,0.46 0,0.24 0.02,0.31 0.06,0.48 z"
   inkscape:connector-curvature="0"
   style="fill:#000000;stroke-width:0" />
<path
   id="path161"
   d="m 154.65,660.16 v 0.01 0.01 0.01 0.01 0 0.01 0.01 0.01 0 0.01 0.01 0 0.01 0 0.01 0 0.01 h -0.01 v 0.01 0.01 0.01 h -0.01 v 0.01 0.01 h -0.01 v 0.01 h -0.01 -0.01 l -0.01,0.01 v 0 h -0.01 -0.01 -0.01 v 0 h -0.01 v 0.01 h -0.01 -0.01 v 0 h -0.01 -0.01 v 0 h -0.01 -0.01 v 0 h -0.01 -0.01 -0.01 -0.01 -0.01 c -0.45,-0.44 -1.08,-0.45 -1.37,-0.45 v -0.25 c 0.17,0 0.63,0 1.02,0.2 v -3.55 c 0,-0.23 0,-0.32 -0.7,-0.32 h -0.27 v -0.25 c 0.13,0.01 0.99,0.03 1.25,0.03 0.21,0 1.09,-0.02 1.25,-0.03 v 0.25 h -0.27 c -0.7,0 -0.7,0.09 -0.7,0.32 z"
   inkscape:connector-curvature="0"
   style="fill:#000000;stroke-width:0" />
</g>    <g
       ns0:jacobian_sqrt="0.352778"
       inkscapeversion="0.92.4"
       ns0:alignment="middle center"
       ns0:scale="1.0"
       ns0:preamble="C:\\Users\\Usuario\\AppData\\Roaming\\inkscape\\extensions\\textext\\default_packages.tex"
       ns0:text="$t_2$"
       ns0:pdfconverter="pstoedit"
       ns0:texconverter="pdflatex"
       ns0:version="0.9.0"
       word-spacing="normal"
       letter-spacing="normal"
       font-size-adjust="none"
       font-stretch="normal"
       font-weight="normal"
       font-variant="normal"
       font-style="normal"
       stroke-miterlimit="10.433"
       xml:space="preserve"
       transform="matrix(1.9961525,0,0,-1.8235023,-735.95792,1132.2283)"
       id="g200"
       style="font-style:normal;font-variant:normal;font-weight:normal;font-stretch:normal;letter-spacing:normal;word-spacing:normal;text-anchor:start;fill:none;fill-opacity:1;fill-rule:evenodd;stroke:#000000;stroke-linecap:butt;stroke-linejoin:miter;stroke-miterlimit:10.43299961;stroke-dasharray:none;stroke-dashoffset:0;stroke-opacity:1"
       inkscape:export-filename="C:\Users\Usuario\g1729.png"
       inkscape:export-xdpi="96"
       inkscape:export-ydpi="96">
<path
   id="path196"
   d="m 150.77,661.21 h 0.93 c 0.2,0 0.3,0 0.3,0.2 0,0.11 -0.1,0.11 -0.28,0.11 h -0.87 c 0.36,1.41 0.41,1.61 0.41,1.66 0,0.17 -0.13,0.27 -0.29,0.27 -0.03,0 -0.31,-0.01 -0.4,-0.35 l -0.39,-1.58 h -0.94 c -0.2,0 -0.3,0 -0.3,-0.19 0,-0.12 0.08,-0.12 0.28,-0.12 h 0.88 c -0.72,-2.82 -0.76,-2.99 -0.76,-3.17 0,-0.54 0.38,-0.91 0.92,-0.91 1.01,0 1.58,1.45 1.58,1.53 0,0.1 -0.08,0.1 -0.12,0.1 -0.09,0 -0.1,-0.04 -0.15,-0.14 -0.42,-1.04 -0.95,-1.28 -1.29,-1.28 -0.21,0 -0.31,0.13 -0.31,0.46 0,0.24 0.02,0.31 0.06,0.48 z"
   inkscape:connector-curvature="0"
   style="fill:#000000;stroke-width:0" />
<path
   id="path198"
   d="m 155.84,657.01 h -0.24 c -0.02,-0.16 -0.09,-0.57 -0.18,-0.64 -0.05,-0.04 -0.59,-0.04 -0.69,-0.04 h -1.29 c 0.74,0.65 0.98,0.84 1.4,1.17 0.52,0.41 1,0.84 1,1.5 0,0.84 -0.74,1.36 -1.63,1.36 -0.87,0 -1.46,-0.61 -1.46,-1.25 0,-0.35 0.3,-0.39 0.37,-0.39 0.17,0 0.37,0.12 0.37,0.37 0,0.13 -0.05,0.37 -0.41,0.37 0.22,0.5 0.69,0.65 1.02,0.65 0.7,0 1.06,-0.54 1.06,-1.11 0,-0.6 -0.43,-1.08 -0.65,-1.33 l -1.69,-1.66 c -0.07,-0.06 -0.07,-0.07 -0.07,-0.27 h 2.88 z"
   inkscape:connector-curvature="0"
   style="fill:#000000;stroke-width:0" />
</g>    <g
       ns0:jacobian_sqrt="0.352778"
       inkscapeversion="0.92.4"
       ns0:alignment="middle center"
       ns0:scale="1.0"
       ns0:preamble="C:\\Users\\Usuario\\AppData\\Roaming\\inkscape\\extensions\\textext\\default_packages.tex"
       ns0:text="$\\Delta$"
       ns0:pdfconverter="pstoedit"
       ns0:texconverter="pdflatex"
       ns0:version="0.9.0"
       word-spacing="normal"
       letter-spacing="normal"
       font-size-adjust="none"
       font-stretch="normal"
       font-weight="normal"
       font-variant="normal"
       font-style="normal"
       stroke-miterlimit="10.433"
       xml:space="preserve"
       transform="matrix(2.2015743,0,0,-2.0515471,-715.57316,1251.2549)"
       id="g239"
       style="font-style:normal;font-variant:normal;font-weight:normal;font-stretch:normal;letter-spacing:normal;word-spacing:normal;text-anchor:start;fill:none;fill-opacity:1;fill-rule:evenodd;stroke:#000000;stroke-linecap:butt;stroke-linejoin:miter;stroke-miterlimit:10.43299961;stroke-dasharray:none;stroke-dashoffset:0;stroke-opacity:1"
       inkscape:export-filename="C:\Users\Usuario\g1729.png"
       inkscape:export-xdpi="96"
       inkscape:export-ydpi="96">
<path
   id="path237"
   d="m 153.12,664.17 -0.01,0.01 v 0.01 l -0.01,0.01 v 0.01 l -0.01,0.01 -0.01,0.01 v 0.01 l -0.01,0.01 v 0.01 l -0.01,0.01 v 0.01 h -0.01 v 0.01 l -0.01,0.01 h -0.01 v 0.01 h -0.01 l -0.01,0.01 v 0 l -0.01,0.01 h -0.01 -0.01 l -0.01,0.01 h -0.01 -0.01 -0.01 -0.01 l -0.01,0.01 h -0.02 -0.01 -0.01 -0.02 c -0.17,0 -0.19,-0.05 -0.26,-0.18 l -0.06,-0.82 2.68,-5.36 h -5.37 l 2.69,5.36 0.06,0.82 -3.37,-6.74 c -0.05,-0.09 -0.05,-0.11 -0.05,-0.12 0,-0.08 0.06,-0.08 0.22,-0.08 h 6.92 c 0.16,0 0.22,0 0.22,0.08 0,0.01 0,0.03 -0.05,0.12 z"
   inkscape:connector-curvature="0"
   style="fill:#000000;stroke-width:0" />
</g>    <g
       ns0:jacobian_sqrt="1.59411"
       inkscapeversion="0.92.4"
       ns0:alignment="middle center"
       ns0:scale="4.51873706313"
       ns0:preamble="C:\\Users\\Usuario\\AppData\\Roaming\\inkscape\\extensions\\textext\\default_packages.tex"
       ns0:text="$\\nu_{ij}=-1$"
       ns0:pdfconverter="pstoedit"
       ns0:texconverter="pdflatex"
       ns0:version="0.9.0"
       word-spacing="normal"
       letter-spacing="normal"
       font-size-adjust="none"
       font-stretch="normal"
       font-weight="normal"
       font-variant="normal"
       font-style="normal"
       stroke-miterlimit="10.433"
       xml:space="preserve"
       transform="matrix(1.1109159,0.0241126,-0.12410851,-1.6427698,-481.9947,937.41285)"
       id="g1729"
       style="font-style:normal;font-variant:normal;font-weight:normal;font-stretch:normal;letter-spacing:normal;word-spacing:normal;text-anchor:start;fill:none;fill-opacity:1;fill-rule:evenodd;stroke:#000000;stroke-linecap:butt;stroke-linejoin:miter;stroke-miterlimit:10.43299961;stroke-dasharray:none;stroke-dashoffset:0;stroke-opacity:1"
       inkscape:transform-center-x="-8.1092131"
       inkscape:transform-center-y="10.927984"
       inkscape:export-filename="C:\Users\Usuario\g1729.png"
       inkscape:export-xdpi="96"
       inkscape:export-ydpi="96">
<path
   id="path1711"
   d="m 150.95,661.52 v 0 0 0 0 0 0.01 0 h -0.01 v 0.01 0 0.01 0 0.01 0 0 l -0.01,0.01 v 0 0.01 h -0.01 v 0.01 h -0.01 v 0.01 0 0 h -0.01 v 0 0.01 h -0.01 v 0 0 h -0.01 v 0.01 0 h -0.01 v 0 h -0.01 v 0 h -0.01 v 0 h -0.01 v 0 l -0.01,0.01 v 0 h -0.01 v 0 c -0.23,0 -0.96,-0.08 -1.22,-0.1 -0.08,-0.01 -0.19,-0.02 -0.19,-0.2 0,-0.12 0.09,-0.12 0.24,-0.12 0.48,0 0.5,-0.07 0.5,-0.17 0,-0.07 -0.12,-0.54 -0.19,-0.81 l -0.61,-2.43 c -0.04,-0.15 -0.11,-0.43 -0.11,-0.45 0,-0.11 0.1,-0.12 0.16,-0.12 h 0.14 c 0.7,0.12 1.78,0.51 2.81,1.47 1.32,1.22 1.59,2.57 1.59,2.66 0,0.17 -0.12,0.27 -0.29,0.27 -0.08,0 -0.31,-0.04 -0.39,-0.33 -0.64,-2.26 -2.16,-3.37 -3.29,-3.74 z"
   inkscape:connector-curvature="0"
   style="fill:#000000;stroke-width:0" />
<path
   id="path1713"
   d="m 155.9,660.09 v 0.01 0.01 0.01 0.01 l -0.01,0.01 v 0.01 0.01 l -0.01,0.02 v 0.01 l -0.01,0.01 v 0.01 l -0.01,0.01 v 0.01 l -0.01,0.01 -0.01,0.01 -0.01,0.01 -0.01,0.01 -0.01,0.01 -0.01,0.01 -0.01,0.01 h -0.01 l -0.01,0.01 -0.01,0.01 -0.01,0.01 h -0.02 l -0.01,0.01 h -0.02 -0.01 l -0.02,0.01 h -0.01 -0.02 -0.02 c -0.19,0 -0.39,-0.18 -0.39,-0.38 0,-0.12 0.09,-0.26 0.28,-0.26 0.2,0 0.39,0.19 0.39,0.38 z"
   inkscape:connector-curvature="0"
   style="fill:#000000;stroke-width:0" />
<path
   id="path1715"
   d="m 154.47,656.55 v -0.01 l -0.01,-0.02 -0.01,-0.03 v -0.02 l -0.01,-0.02 v -0.01 l -0.01,-0.02 v -0.02 l -0.01,-0.02 v -0.02 -0.01 l -0.01,-0.01 v -0.01 -0.01 -0.01 -0.02 -0.01 -0.01 -0.01 c 0,-0.32 0.28,-0.59 0.66,-0.59 0.7,0 1.01,0.96 1.01,1.06 0,0.1 -0.09,0.1 -0.11,0.1 -0.1,0 -0.11,-0.05 -0.13,-0.12 -0.16,-0.56 -0.47,-0.84 -0.74,-0.84 -0.14,0 -0.18,0.09 -0.18,0.24 0,0.16 0.05,0.29 0.11,0.44 0.07,0.19 0.15,0.38 0.23,0.56 0.06,0.17 0.31,0.8 0.34,0.88 0.02,0.07 0.04,0.16 0.04,0.23 0,0.32 -0.28,0.59 -0.66,0.59 -0.7,0 -1.02,-0.95 -1.02,-1.07 0,-0.09 0.1,-0.09 0.12,-0.09 0.1,0 0.11,0.04 0.13,0.11 0.18,0.6 0.49,0.85 0.75,0.85 0.11,0 0.17,-0.05 0.17,-0.24 0,-0.16 -0.04,-0.27 -0.22,-0.7 z"
   inkscape:connector-curvature="0"
   style="fill:#000000;stroke-width:0" />
<path
   id="path1717"
   d="m 159.52,660.09 v 0.01 0.01 0.01 0.01 0.01 l -0.01,0.02 v 0.01 l -0.01,0.01 v 0.01 0.01 l -0.01,0.01 -0.01,0.01 v 0.01 l -0.01,0.01 -0.01,0.01 -0.01,0.01 -0.01,0.01 -0.01,0.01 -0.01,0.01 -0.01,0.01 -0.01,0.01 h -0.01 l -0.01,0.01 -0.01,0.01 h -0.02 l -0.01,0.01 h -0.02 -0.01 l -0.02,0.01 h -0.01 -0.02 -0.02 c -0.2,0 -0.39,-0.19 -0.39,-0.38 0,-0.11 0.08,-0.26 0.28,-0.26 0.19,0 0.39,0.18 0.39,0.38 z"
   inkscape:connector-curvature="0"
   style="fill:#000000;stroke-width:0" />
<path
   id="path1719"
   d="m 158.04,655.4 -0.01,-0.04 -0.02,-0.05 -0.01,-0.04 -0.02,-0.05 -0.01,-0.04 -0.02,-0.04 -0.02,-0.04 -0.02,-0.04 -0.03,-0.04 -0.02,-0.04 -0.02,-0.03 -0.03,-0.04 -0.03,-0.04 -0.02,-0.03 -0.03,-0.03 -0.03,-0.03 -0.03,-0.03 -0.03,-0.03 -0.03,-0.03 -0.04,-0.02 -0.03,-0.02 -0.03,-0.02 -0.04,-0.02 -0.03,-0.02 -0.04,-0.02 -0.04,-0.01 -0.03,-0.01 -0.04,-0.01 -0.04,-0.01 -0.04,-0.01 h -0.03 -0.04 c -0.09,0 -0.18,0.01 -0.25,0.04 0.18,0.08 0.23,0.25 0.23,0.35 0,0.17 -0.13,0.26 -0.27,0.26 -0.22,0 -0.4,-0.19 -0.4,-0.41 0,-0.26 0.28,-0.44 0.7,-0.44 0.42,0 1.23,0.25 1.45,1.1 l 0.63,2.49 c 0.02,0.08 0.03,0.14 0.03,0.24 0,0.39 -0.33,0.66 -0.75,0.66 -0.77,0 -1.22,-0.97 -1.22,-1.07 0,-0.09 0.1,-0.09 0.12,-0.09 0.08,0 0.09,0.02 0.14,0.13 0.18,0.4 0.54,0.83 0.94,0.83 0.18,0 0.24,-0.12 0.24,-0.34 0,-0.07 -0.01,-0.17 -0.02,-0.21 z"
   inkscape:connector-curvature="0"
   style="fill:#000000;stroke-width:0" />
<path
   id="path1721"
   d="m 170.27,660.48 h 0.03 0.03 0.03 l 0.01,0.01 h 0.01 0.02 0.01 0.02 0.01 l 0.02,0.01 h 0.01 0.01 l 0.01,0.01 h 0.02 l 0.01,0.01 h 0.01 l 0.01,0.01 0.01,0.01 0.01,0.01 0.01,0.01 0.01,0.01 v 0 0.01 h 0.01 v 0.01 0.01 0 l 0.01,0.01 v 0.01 0 0.01 0.01 l 0.01,0.01 v 0.01 0 0.01 0.01 c 0,0.2 -0.19,0.2 -0.33,0.2 h -5.98 c -0.13,0 -0.32,0 -0.32,-0.2 0,-0.2 0.19,-0.2 0.34,-0.2 z"
   inkscape:connector-curvature="0"
   style="fill:#000000;stroke-width:0" />
<path
   id="path1723"
   d="m 170.28,658.56 h 0.01 0.02 0.02 0.03 0.02 0.01 0.01 0.02 0.01 l 0.01,0.01 h 0.02 0.01 l 0.01,0.01 h 0.02 l 0.01,0.01 h 0.01 l 0.01,0.01 h 0.01 l 0.01,0.01 0.01,0.01 0.01,0.01 v 0 l 0.01,0.01 v 0.01 0 l 0.01,0.01 v 0 0.01 l 0.01,0.01 v 0 0.01 0.01 0 0.01 l 0.01,0.01 v 0.01 0.01 0.01 0.01 c 0,0.19 -0.19,0.19 -0.34,0.19 h -5.95 c -0.15,0 -0.34,0 -0.34,-0.19 0,-0.2 0.19,-0.2 0.32,-0.2 z"
   inkscape:connector-curvature="0"
   style="fill:#000000;stroke-width:0" />
<path
   id="path1725"
   d="m 180.51,659.52 h 0.03 0.03 0.03 0.02 0.01 0.02 l 0.01,0.01 h 0.02 0.01 0.01 l 0.02,0.01 h 0.01 0.01 l 0.02,0.01 0.01,0.01 h 0.01 l 0.01,0.01 0.01,0.01 h 0.01 l 0.01,0.01 v 0.01 l 0.01,0.01 v 0 0.01 l 0.01,0.01 v 0 0.01 0.01 h 0.01 v 0.01 0.01 0.01 0 0.01 0.01 0.01 0.01 c 0,0.2 -0.17,0.2 -0.34,0.2 h -5.4 c -0.17,0 -0.35,0 -0.35,-0.2 0,-0.2 0.18,-0.2 0.35,-0.2 z"
   inkscape:connector-curvature="0"
   style="fill:#000000;stroke-width:0" />
<path
   id="path1727"
   d="m 184.61,663.59 v 0.01 0.01 0.02 0.01 0 0.01 0.01 0.01 0.01 0.01 0.01 0.01 0 0.01 0.01 0 0.01 0.01 0.01 l -0.01,0.01 v 0.01 0.01 l -0.01,0.01 v 0 0.01 l -0.01,0.01 h -0.01 v 0.01 h -0.01 l -0.01,0.01 h -0.01 v 0 h -0.01 v 0 h -0.01 v 0 l -0.01,0.01 h -0.01 v 0 h -0.01 -0.01 v 0 h -0.01 -0.01 -0.01 -0.01 -0.01 -0.01 -0.01 -0.01 -0.01 -0.01 c -0.61,-0.63 -1.49,-0.63 -1.81,-0.63 v -0.31 c 0.2,0 0.79,0 1.31,0.25 v -5.14 c 0,-0.36 -0.03,-0.48 -0.93,-0.48 h -0.32 v -0.31 c 0.35,0.04 1.22,0.04 1.61,0.04 0.4,0 1.27,0 1.62,-0.04 v 0.31 h -0.32 c -0.9,0 -0.93,0.11 -0.93,0.48 z"
   inkscape:connector-curvature="0"
   style="fill:#000000;stroke-width:0" />
</g>    <path
       style="fill:none;stroke:#7d0000;stroke-width:1.565;stroke-linecap:round;stroke-linejoin:round;stroke-opacity:1;stroke-miterlimit:4;stroke-dasharray:1.565, 3.12999999999999989;stroke-dashoffset:0"
       d="m -403.49437,-188.70419 c 0.73645,37.19915 1.47309,74.40825 17.4589,101.276663 15.9858,26.868418 47.22034,43.400465 78.45499,59.93257"
       id="path142"
       inkscape:connector-curvature="0"
       inkscape:path-effect="#path-effect144"
       inkscape:original-d="m -403.49437,-188.70419 c 0.49184,37.20399 1.47336,74.40824 2.20964,111.612757 31.23523,16.532008 62.46977,33.064053 93.70425,49.596476" />
    <path
       style="fill:none;stroke:#000000;stroke-width:0.86500001;stroke-linecap:butt;stroke-linejoin:miter;stroke-miterlimit:4;stroke-dasharray:none;stroke-opacity:1;marker-start:url(#Arrow2Lstart);marker-mid:url(#marker1440)"
       d="m -636.46991,-172.63541 c -1.46987,-1.2249 -2.93978,-2.44983 -4.40971,-3.67477"
       id="path1375"
       inkscape:connector-curvature="0"
       inkscape:path-effect="#path-effect1377"
       inkscape:original-d="m -636.46991,-172.63541 c -1.46963,-1.22519 -2.93955,-2.45011 -4.40971,-3.67477"
       transform="matrix(1.0073625,0.48614353,-0.46447207,0.96245596,149.82431,422.79851)"
       inkscape:transform-center-x="-8.7973201"
       inkscape:transform-center-y="9.1862305" />
    <path
       style="fill:none;stroke:#000000;stroke-width:0.86500001;stroke-linecap:butt;stroke-linejoin:miter;stroke-miterlimit:4;stroke-dasharray:none;stroke-opacity:1;marker-start:url(#Arrow2Lstart-4);marker-mid:url(#marker1440-5)"
       d="m -636.46991,-172.63541 c -1.46987,-1.2249 -2.93978,-2.44983 -4.40971,-3.67477"
       id="path1375-1"
       inkscape:connector-curvature="0"
       inkscape:path-effect="#path-effect1377-5"
       inkscape:original-d="m -636.46991,-172.63541 c -1.46963,-1.22519 -2.93955,-2.45011 -4.40971,-3.67477"
       transform="matrix(-1.1041077,-0.17905576,0.17107374,-1.0548884,-1112.1951,-388.70157)"
       inkscape:transform-center-x="5.1614987"
       inkscape:transform-center-y="-14.932087" />
    <path
       style="fill:none;stroke:#000000;stroke-width:0.86500001;stroke-linecap:butt;stroke-linejoin:miter;stroke-miterlimit:4;stroke-dasharray:none;stroke-opacity:1;marker-start:url(#Arrow2Lstart-0);marker-mid:url(#marker1440-59)"
       d="m -636.46991,-172.63541 c -1.46987,-1.2249 -2.93978,-2.44983 -4.40971,-3.67477"
       id="path1375-8"
       inkscape:connector-curvature="0"
       inkscape:path-effect="#path-effect1377-7"
       inkscape:original-d="m -636.46991,-172.63541 c -1.46963,-1.22519 -2.93955,-2.45011 -4.40971,-3.67477"
       transform="matrix(-1.012155,0.47608503,-0.45486197,-0.96703489,-1174.4367,114.81673)"
       inkscape:transform-center-x="27.49937"
       inkscape:transform-center-y="-2.8800551" />
    <path
       style="fill:none;stroke:#000000;stroke-width:0.86500001;stroke-linecap:butt;stroke-linejoin:miter;stroke-miterlimit:4;stroke-dasharray:none;stroke-opacity:1;marker-start:url(#Arrow2Lstart-7);marker-mid:url(#marker1440-6)"
       d="m -636.46991,-172.63541 c -1.46987,-1.2249 -2.93978,-2.44983 -4.40971,-3.67477"
       id="path1375-6"
       inkscape:connector-curvature="0"
       inkscape:path-effect="#path-effect1377-9"
       inkscape:original-d="m -636.46991,-172.63541 c -1.46963,-1.22519 -2.93955,-2.45011 -4.40971,-3.67477"
       transform="matrix(1.1185324,0,0,1.0686701,291.9462,179.36661)" />
    <path
       style="fill:none;stroke:#000000;stroke-width:0.86500001;stroke-linecap:butt;stroke-linejoin:miter;stroke-miterlimit:4;stroke-dasharray:none;stroke-opacity:1;marker-start:url(#Arrow2Lstart-7-9);marker-mid:url(#marker1440-6-1)"
       d="m -636.46991,-172.63541 c -1.46987,-1.2249 -2.93978,-2.44983 -4.40971,-3.67477"
       id="path1375-6-7"
       inkscape:connector-curvature="0"
       inkscape:path-effect="#path-effect1377-9-3"
       inkscape:original-d="m -636.46991,-172.63541 c -1.46963,-1.22519 -2.93955,-2.45011 -4.40971,-3.67477"
       transform="matrix(-0.82714672,-0.7529562,0.71939067,-0.7902739,-803.40206,-754.32217)"
       inkscape:transform-center-x="3.2529075"
       inkscape:transform-center-y="2.1445035" />
    <path
       style="fill:none;stroke:#000000;stroke-width:0.86500001;stroke-linecap:butt;stroke-linejoin:miter;stroke-miterlimit:4;stroke-dasharray:none;stroke-opacity:1;marker-start:url(#Arrow2Lstart-7-4);marker-mid:url(#marker1440-6-5)"
       d="m -636.46991,-172.63541 c -1.46987,-1.2249 -2.93978,-2.44983 -4.40971,-3.67477"
       id="path1375-6-5"
       inkscape:connector-curvature="0"
       inkscape:path-effect="#path-effect1377-9-4"
       inkscape:original-d="m -636.46991,-172.63541 c -1.46963,-1.22519 -2.93955,-2.45011 -4.40971,-3.67477"
       transform="matrix(1.1185324,0,0,1.0686701,352.24755,125.12259)" />
    <g
       ns0:jacobian_sqrt="1.59411"
       inkscapeversion="0.92.4"
       ns0:alignment="middle center"
       ns0:scale="4.51873706313"
       ns0:preamble="C:\\Users\\Usuario\\AppData\\Roaming\\inkscape\\extensions\\textext\\default_packages.tex"
       ns0:text="$\\nu_{ij}=+1$"
       ns0:pdfconverter="pstoedit"
       ns0:texconverter="pdflatex"
       ns0:version="0.9.0"
       word-spacing="normal"
       letter-spacing="normal"
       font-size-adjust="none"
       font-stretch="normal"
       font-weight="normal"
       font-variant="normal"
       font-style="normal"
       stroke-miterlimit="10.433"
       xml:space="preserve"
       transform="matrix(1.0722969,0,0,-1.51699,-518.42844,932.8811)"
       id="g11994"
       style="font-style:normal;font-variant:normal;font-weight:normal;font-stretch:normal;letter-spacing:normal;word-spacing:normal;text-anchor:start;fill:none;fill-opacity:1;fill-rule:evenodd;stroke:#000000;stroke-linecap:butt;stroke-linejoin:miter;stroke-miterlimit:10.43299961;stroke-dasharray:none;stroke-dashoffset:0;stroke-opacity:1">
<path
   id="path11976"
   d="m 150.95,661.52 v 0 0 0 0 0 0.01 0 h -0.01 v 0.01 0 0.01 0 0.01 0 0 l -0.01,0.01 v 0 0.01 h -0.01 v 0.01 h -0.01 v 0.01 0 0 h -0.01 v 0 0.01 h -0.01 v 0 0 h -0.01 v 0.01 0 h -0.01 v 0 h -0.01 v 0 h -0.01 v 0 h -0.01 v 0 l -0.01,0.01 v 0 h -0.01 v 0 c -0.23,0 -0.96,-0.08 -1.22,-0.1 -0.08,-0.01 -0.19,-0.02 -0.19,-0.2 0,-0.12 0.09,-0.12 0.24,-0.12 0.48,0 0.5,-0.07 0.5,-0.17 0,-0.07 -0.12,-0.54 -0.19,-0.81 l -0.61,-2.43 c -0.04,-0.15 -0.11,-0.43 -0.11,-0.45 0,-0.11 0.1,-0.12 0.16,-0.12 h 0.14 c 0.7,0.12 1.78,0.51 2.81,1.47 1.32,1.22 1.59,2.57 1.59,2.66 0,0.17 -0.12,0.27 -0.29,0.27 -0.08,0 -0.31,-0.04 -0.39,-0.33 -0.64,-2.26 -2.16,-3.37 -3.29,-3.74 z"
   inkscape:connector-curvature="0"
   style="fill:#000000;stroke-width:0" />
<path
   id="path11978"
   d="m 155.9,660.09 v 0.01 0.01 0.01 0.01 l -0.01,0.01 v 0.01 0.01 l -0.01,0.02 v 0.01 l -0.01,0.01 v 0.01 l -0.01,0.01 v 0.01 l -0.01,0.01 -0.01,0.01 -0.01,0.01 -0.01,0.01 -0.01,0.01 -0.01,0.01 -0.01,0.01 h -0.01 l -0.01,0.01 -0.01,0.01 -0.01,0.01 h -0.02 l -0.01,0.01 h -0.02 -0.01 l -0.02,0.01 h -0.01 -0.02 -0.02 c -0.19,0 -0.39,-0.18 -0.39,-0.38 0,-0.12 0.09,-0.26 0.28,-0.26 0.2,0 0.39,0.19 0.39,0.38 z"
   inkscape:connector-curvature="0"
   style="fill:#000000;stroke-width:0" />
<path
   id="path11980"
   d="m 154.47,656.55 v -0.01 l -0.01,-0.02 -0.01,-0.03 v -0.02 l -0.01,-0.02 v -0.01 l -0.01,-0.02 v -0.02 l -0.01,-0.02 v -0.02 -0.01 l -0.01,-0.01 v -0.01 -0.01 -0.01 -0.02 -0.01 -0.01 -0.01 c 0,-0.32 0.28,-0.59 0.66,-0.59 0.7,0 1.01,0.96 1.01,1.06 0,0.1 -0.09,0.1 -0.11,0.1 -0.1,0 -0.11,-0.05 -0.13,-0.12 -0.16,-0.56 -0.47,-0.84 -0.74,-0.84 -0.14,0 -0.18,0.09 -0.18,0.24 0,0.16 0.05,0.29 0.11,0.44 0.07,0.19 0.15,0.38 0.23,0.56 0.06,0.17 0.31,0.8 0.34,0.88 0.02,0.07 0.04,0.16 0.04,0.23 0,0.32 -0.28,0.59 -0.66,0.59 -0.7,0 -1.02,-0.95 -1.02,-1.07 0,-0.09 0.1,-0.09 0.12,-0.09 0.1,0 0.11,0.04 0.13,0.11 0.18,0.6 0.49,0.85 0.75,0.85 0.11,0 0.17,-0.05 0.17,-0.24 0,-0.16 -0.04,-0.27 -0.22,-0.7 z"
   inkscape:connector-curvature="0"
   style="fill:#000000;stroke-width:0" />
<path
   id="path11982"
   d="m 159.52,660.09 v 0.01 0.01 0.01 0.01 0.01 l -0.01,0.02 v 0.01 l -0.01,0.01 v 0.01 0.01 l -0.01,0.01 -0.01,0.01 v 0.01 l -0.01,0.01 -0.01,0.01 -0.01,0.01 -0.01,0.01 -0.01,0.01 -0.01,0.01 -0.01,0.01 -0.01,0.01 h -0.01 l -0.01,0.01 -0.01,0.01 h -0.02 l -0.01,0.01 h -0.02 -0.01 l -0.02,0.01 h -0.01 -0.02 -0.02 c -0.2,0 -0.39,-0.19 -0.39,-0.38 0,-0.11 0.08,-0.26 0.28,-0.26 0.19,0 0.39,0.18 0.39,0.38 z"
   inkscape:connector-curvature="0"
   style="fill:#000000;stroke-width:0" />
<path
   id="path11984"
   d="m 158.04,655.4 -0.01,-0.04 -0.02,-0.05 -0.01,-0.04 -0.02,-0.05 -0.01,-0.04 -0.02,-0.04 -0.02,-0.04 -0.02,-0.04 -0.03,-0.04 -0.02,-0.04 -0.02,-0.03 -0.03,-0.04 -0.03,-0.04 -0.02,-0.03 -0.03,-0.03 -0.03,-0.03 -0.03,-0.03 -0.03,-0.03 -0.03,-0.03 -0.04,-0.02 -0.03,-0.02 -0.03,-0.02 -0.04,-0.02 -0.03,-0.02 -0.04,-0.02 -0.04,-0.01 -0.03,-0.01 -0.04,-0.01 -0.04,-0.01 -0.04,-0.01 h -0.03 -0.04 c -0.09,0 -0.18,0.01 -0.25,0.04 0.18,0.08 0.23,0.25 0.23,0.35 0,0.17 -0.13,0.26 -0.27,0.26 -0.22,0 -0.4,-0.19 -0.4,-0.41 0,-0.26 0.28,-0.44 0.7,-0.44 0.42,0 1.23,0.25 1.45,1.1 l 0.63,2.49 c 0.02,0.08 0.03,0.14 0.03,0.24 0,0.39 -0.33,0.66 -0.75,0.66 -0.77,0 -1.22,-0.97 -1.22,-1.07 0,-0.09 0.1,-0.09 0.12,-0.09 0.08,0 0.09,0.02 0.14,0.13 0.18,0.4 0.54,0.83 0.94,0.83 0.18,0 0.24,-0.12 0.24,-0.34 0,-0.07 -0.01,-0.17 -0.02,-0.21 z"
   inkscape:connector-curvature="0"
   style="fill:#000000;stroke-width:0" />
<path
   id="path11986"
   d="m 170.27,660.48 h 0.03 0.03 0.03 l 0.01,0.01 h 0.01 0.02 0.01 0.02 0.01 l 0.02,0.01 h 0.01 0.01 l 0.01,0.01 h 0.02 l 0.01,0.01 h 0.01 l 0.01,0.01 0.01,0.01 0.01,0.01 0.01,0.01 0.01,0.01 v 0 0.01 h 0.01 v 0.01 0.01 0 l 0.01,0.01 v 0.01 0 0.01 0.01 l 0.01,0.01 v 0.01 0 0.01 0.01 c 0,0.2 -0.19,0.2 -0.33,0.2 h -5.98 c -0.13,0 -0.32,0 -0.32,-0.2 0,-0.2 0.19,-0.2 0.34,-0.2 z"
   inkscape:connector-curvature="0"
   style="fill:#000000;stroke-width:0" />
<path
   id="path11988"
   d="m 170.28,658.56 h 0.01 0.02 0.02 0.03 0.02 0.01 0.01 0.02 0.01 l 0.01,0.01 h 0.02 0.01 l 0.01,0.01 h 0.02 l 0.01,0.01 h 0.01 l 0.01,0.01 h 0.01 l 0.01,0.01 0.01,0.01 0.01,0.01 v 0 l 0.01,0.01 v 0.01 0 l 0.01,0.01 v 0 0.01 l 0.01,0.01 v 0 0.01 0.01 0 0.01 l 0.01,0.01 v 0.01 0.01 0.01 0.01 c 0,0.19 -0.19,0.19 -0.34,0.19 h -5.95 c -0.15,0 -0.34,0 -0.34,-0.19 0,-0.2 0.19,-0.2 0.32,-0.2 z"
   inkscape:connector-curvature="0"
   style="fill:#000000;stroke-width:0" />
<path
   id="path11990"
   d="m 178.01,659.52 h 2.79 c 0.14,0 0.33,0 0.33,0.2 0,0.2 -0.19,0.2 -0.33,0.2 h -2.79 v 2.78 c 0,0.14 0,0.33 -0.19,0.33 -0.2,0 -0.2,-0.19 -0.2,-0.33 v -2.78 h -2.8 c -0.14,0 -0.33,0 -0.33,-0.2 0,-0.2 0.19,-0.2 0.33,-0.2 h 2.8 v -2.78 c 0,-0.14 0,-0.33 0.2,-0.33 0.19,0 0.19,0.19 0.19,0.33 z"
   inkscape:connector-curvature="0"
   style="fill:#000000;stroke-width:0" />
<path
   id="path11992"
   d="m 184.62,663.59 v 0.01 0.01 0.02 0.01 0 0.01 0.01 0.01 0.01 0.01 0.01 0.01 0 l -0.01,0.01 v 0.01 0 0.01 0.01 0.01 0.01 l -0.01,0.01 v 0.01 0.01 h -0.01 v 0.01 l -0.01,0.01 v 0 l -0.01,0.01 h -0.01 l -0.01,0.01 v 0 h -0.01 v 0 h -0.01 v 0 h -0.01 l -0.01,0.01 v 0 h -0.01 -0.01 v 0 h -0.01 -0.01 -0.01 v 0 h -0.01 -0.01 -0.01 -0.01 -0.01 -0.01 -0.01 c -0.62,-0.63 -1.5,-0.63 -1.82,-0.63 v -0.31 c 0.2,0 0.79,0 1.31,0.25 v -5.14 c 0,-0.36 -0.03,-0.48 -0.93,-0.48 h -0.32 v -0.31 c 0.35,0.04 1.22,0.04 1.62,0.04 0.4,0 1.26,0 1.61,-0.04 v 0.31 h -0.32 c -0.89,0 -0.92,0.11 -0.92,0.48 z"
   inkscape:connector-curvature="0"
   style="fill:#000000;stroke-width:0" />
</g>  </g>
</svg>
